<svg xmlns="http://www.w3.org/2000/svg">
<symbol xmlns="http://www.w3.org/2000/svg" id="logo" viewBox="-229.9 237.1 210.5 70"><path d="M-191.8 248.6h12.9v8h9.6v-18.9h-60.6V264h9.7v-15.5h12.6v47.4H-218v9.5h36.7v-9.5h-10.4v-47.3h-.1z"/><path d="M-124.2 305.5v-8.9h-5.4v-37.1h-20.6v9h7.4v23.3l-.4.3c-3.3 2.4-6.4 3.7-9.2 3.7-2.3 0-3.9-.6-4.8-1.7s-1.4-2.9-1.4-5.6v-28.9H-179v9h7.2v23.9c0 4.4 1.2 7.9 3.6 10.3 2.4 2.4 5.8 3.6 10.2 3.6 4.5 0 9-1.5 13.4-4.6l1.7-1.2v5.1c1.1-.2 17.9-.2 18.7-.2zM-97.3 237.1c-5.9 0-10.3 1.6-13.2 4.8s-4.4 7.2-4.4 12v5.5h-6.5v9h6.5v28.1h-6.5v8.9h27.3v-8.9h-7.6v-28.1h7.6v-9h-7.6V253c0-6.4 2.8-7.8 5.1-7.8 2.1 0 3.7 1.5 4.8 4.5.7-.6 8.3-6.5 9.1-7.1-3.1-3.6-8-5.5-14.6-5.5z"/><path d="M-72 241.8c-1.1.8-4 2.9-4 2.9s-8.8 6.3-9.2 6.6v8.1h-6.1v9h6.1v26.3c0 7.8 3.7 11.5 11.6 11.5 3.4 0 6.9-.7 10.5-2.1v-8.4c-1.4.4-2.7.7-3.7.7-2.1 0-3.5-.5-4.2-1.4-.6-.9-.9-2.3-.9-4.5v-22h8.9v-9h-8.9s-.1-16-.1-17.7zM-19.4 291.7c0-3.2-.9-5.9-2.5-8.1-1.7-2.3-4-3.9-6.8-4.9-2.9-1-7.4-2-13.2-3.1-3.9-.7-6.2-1.3-7.2-1.8-1.1-.6-1.7-1.5-1.7-2.7 0-2.9 2.5-4.4 7.3-4.4 6 0 9.7 1.7 11 5h9.9V259h-9.7v2l-.9-.4c-3.7-1.6-7.7-2.3-11.9-2.3-5.2 0-9.4 1.3-12.5 4-3.1 2.6-4.6 5.8-4.6 9.6 0 4 1.7 7.3 4.9 9.7 3.3 2.5 8.9 4.4 16.6 5.6 3.9.6 6.5 1.3 7.8 2.1 1.5.8 2.3 2 2.3 3.5 0 1.6-.8 2.9-2.4 3.9-1.5.9-3.6 1.4-6.3 1.4-3 0-5.7-.7-7.8-2.1-1.9-1.3-3-3.1-3.3-5.3h-10V306h9.9v-3.5l1.2 1.3c2 2.2 5.8 3.3 11.3 3.3 6 0 10.7-1.5 13.9-4.3 3-2.9 4.7-6.6 4.7-11.1z"/></symbol>
</svg>
